<svg width="2048" height="2048" viewBox="0 0 2048 2048" fill="none" xmlns="http://www.w3.org/2000/svg">
<path d="M839.907 365.038C781.385 338.83 716.533 324.252 648.297 324.252C389.062 324.252 178.668 534.646 178.668 793.882V1263.51H366.519V793.882C366.519 637.965 492.38 512.104 648.297 512.104C650.802 512.104 653.3 512.137 655.79 512.201C596.834 590.692 561.888 688.23 561.888 793.882V1263.51H749.74V793.882C749.74 712.045 784.414 638.489 839.907 587.066C895.237 638.337 929.869 711.61 930.074 793.156V1254.12C930.074 1513.35 1140.47 1723.75 1399.7 1723.75C1658.94 1723.75 1869.33 1513.35 1869.33 1254.12V784.489H1681.48V1254.12C1681.48 1410.03 1555.62 1535.9 1399.7 1535.9C1243.79 1535.9 1117.93 1410.03 1117.93 1254.12V793.882C1117.93 793.57 1117.93 793.259 1117.93 792.948V784.489H1117.83C1115.83 682.453 1081.23 588.36 1024.03 512.201C1026.51 512.137 1029.01 512.104 1031.52 512.104C1187.44 512.104 1313.29 637.965 1313.29 793.882V1263.51H1501.15V793.882C1501.15 534.646 1290.75 324.252 1031.52 324.252C963.282 324.252 898.429 338.83 839.907 365.038ZM1215.22 909.711C1249.82 909.711 1277.83 881.701 1277.83 847.1C1277.83 812.499 1249.82 784.489 1215.22 784.489C1180.62 784.489 1152.61 812.499 1152.61 847.1C1152.61 881.701 1180.62 909.711 1215.22 909.711Z" fill="#6366F1"/>
</svg>
